<mxfile host="Electron" agent="Mozilla/5.0 (Windows NT 10.0; Win64; x64) AppleWebKit/537.36 (KHTML, like Gecko) draw.io/28.2.7 Chrome/138.0.7204.251 Electron/37.7.1 Safari/537.36" version="28.2.7">
  <diagram name="Page-1" id="r2828ZuOqHm7d7MoccXU">
    <mxGraphModel dx="1026" dy="610" grid="0" gridSize="10" guides="1" tooltips="1" connect="1" arrows="1" fold="1" page="1" pageScale="1" pageWidth="850" pageHeight="1100" math="0" shadow="0">
      <root>
        <mxCell id="0" />
        <mxCell id="1" parent="0" />
        <mxCell id="0MIKO7BPBziwEg9SYeyR-44" value="" style="group" parent="1" vertex="1" connectable="0">
          <mxGeometry x="30" y="349" width="775.0000000000005" height="382" as="geometry" />
        </mxCell>
        <mxCell id="0MIKO7BPBziwEg9SYeyR-40" value="&lt;b&gt;scan_in&lt;/b&gt;" style="text;html=1;align=center;verticalAlign=middle;resizable=0;points=[];autosize=1;strokeColor=none;fillColor=none;" parent="0MIKO7BPBziwEg9SYeyR-44" vertex="1">
          <mxGeometry y="155" width="70" height="30" as="geometry" />
        </mxCell>
        <mxCell id="0MIKO7BPBziwEg9SYeyR-42" value="" style="group" parent="0MIKO7BPBziwEg9SYeyR-44" vertex="1" connectable="0">
          <mxGeometry x="33" width="742.0000000000005" height="382" as="geometry" />
        </mxCell>
        <mxCell id="0MIKO7BPBziwEg9SYeyR-1" value="" style="group" parent="0MIKO7BPBziwEg9SYeyR-42" vertex="1" connectable="0">
          <mxGeometry x="342.00000000000045" width="400" height="382" as="geometry" />
        </mxCell>
        <mxCell id="0MIKO7BPBziwEg9SYeyR-2" value="" style="rounded=0;whiteSpace=wrap;html=1;fontSize=20;strokeWidth=2;" parent="0MIKO7BPBziwEg9SYeyR-1" vertex="1">
          <mxGeometry x="80" y="52" width="240" height="280" as="geometry" />
        </mxCell>
        <mxCell id="0MIKO7BPBziwEg9SYeyR-3" value="d" style="text;html=1;align=center;verticalAlign=middle;resizable=0;points=[];autosize=1;strokeColor=none;fillColor=none;fontSize=20;" parent="0MIKO7BPBziwEg9SYeyR-1" vertex="1">
          <mxGeometry x="99" y="107" width="30" height="40" as="geometry" />
        </mxCell>
        <mxCell id="0MIKO7BPBziwEg9SYeyR-4" value="clk" style="text;html=1;align=center;verticalAlign=middle;resizable=0;points=[];autosize=1;strokeColor=none;fillColor=none;fontSize=20;" parent="0MIKO7BPBziwEg9SYeyR-1" vertex="1">
          <mxGeometry x="89" y="229" width="50" height="40" as="geometry" />
        </mxCell>
        <mxCell id="0MIKO7BPBziwEg9SYeyR-5" value="q" style="text;html=1;align=center;verticalAlign=middle;resizable=0;points=[];autosize=1;strokeColor=none;fillColor=none;fontSize=20;" parent="0MIKO7BPBziwEg9SYeyR-1" vertex="1">
          <mxGeometry x="285" y="107" width="30" height="40" as="geometry" />
        </mxCell>
        <mxCell id="0MIKO7BPBziwEg9SYeyR-6" value="" style="group;strokeWidth=1;" parent="0MIKO7BPBziwEg9SYeyR-1" vertex="1" connectable="0">
          <mxGeometry x="280" y="229" width="40" height="40" as="geometry" />
        </mxCell>
        <mxCell id="0MIKO7BPBziwEg9SYeyR-7" value="" style="endArrow=none;html=1;rounded=0;strokeWidth=2;" parent="0MIKO7BPBziwEg9SYeyR-6" edge="1">
          <mxGeometry width="50" height="50" relative="1" as="geometry">
            <mxPoint x="14" y="9" as="sourcePoint" />
            <mxPoint x="26" y="9" as="targetPoint" />
          </mxGeometry>
        </mxCell>
        <mxCell id="0MIKO7BPBziwEg9SYeyR-8" value="q" style="text;html=1;align=center;verticalAlign=middle;resizable=0;points=[];autosize=1;strokeColor=none;fillColor=none;fontSize=20;" parent="0MIKO7BPBziwEg9SYeyR-6" vertex="1">
          <mxGeometry x="5" width="30" height="40" as="geometry" />
        </mxCell>
        <mxCell id="0MIKO7BPBziwEg9SYeyR-9" value="&amp;gt;" style="text;html=1;align=center;verticalAlign=middle;resizable=0;points=[];autosize=1;strokeColor=none;fillColor=none;fontSize=40;strokeWidth=8;" parent="0MIKO7BPBziwEg9SYeyR-1" vertex="1">
          <mxGeometry x="68" y="221" width="42" height="61" as="geometry" />
        </mxCell>
        <mxCell id="0MIKO7BPBziwEg9SYeyR-10" value="" style="endArrow=none;html=1;rounded=0;strokeWidth=2;fontSize=11;edgeStyle=orthogonalEdgeStyle;" parent="0MIKO7BPBziwEg9SYeyR-1" edge="1">
          <mxGeometry width="50" height="50" relative="1" as="geometry">
            <mxPoint x="-325.00000000000045" y="331" as="sourcePoint" />
            <mxPoint x="80" y="252" as="targetPoint" />
            <Array as="points">
              <mxPoint x="-325" y="332" />
              <mxPoint x="-45" y="332" />
              <mxPoint x="-45" y="252" />
            </Array>
          </mxGeometry>
        </mxCell>
        <mxCell id="0MIKO7BPBziwEg9SYeyR-11" value="" style="endArrow=none;html=1;rounded=0;strokeWidth=2;fontSize=11;" parent="0MIKO7BPBziwEg9SYeyR-1" edge="1">
          <mxGeometry width="50" height="50" relative="1" as="geometry">
            <mxPoint x="-115.00000000000045" y="131" as="sourcePoint" />
            <mxPoint x="80" y="132" as="targetPoint" />
          </mxGeometry>
        </mxCell>
        <mxCell id="0MIKO7BPBziwEg9SYeyR-12" value="" style="endArrow=none;html=1;rounded=0;strokeWidth=2;fontSize=11;" parent="0MIKO7BPBziwEg9SYeyR-1" edge="1">
          <mxGeometry width="50" height="50" relative="1" as="geometry">
            <mxPoint x="320" y="251.57999999999993" as="sourcePoint" />
            <mxPoint x="400" y="251.57999999999993" as="targetPoint" />
          </mxGeometry>
        </mxCell>
        <mxCell id="0MIKO7BPBziwEg9SYeyR-13" value="" style="endArrow=none;html=1;rounded=0;strokeWidth=2;fontSize=11;" parent="0MIKO7BPBziwEg9SYeyR-1" edge="1">
          <mxGeometry width="50" height="50" relative="1" as="geometry">
            <mxPoint x="320" y="131.57999999999993" as="sourcePoint" />
            <mxPoint x="400" y="131.57999999999993" as="targetPoint" />
          </mxGeometry>
        </mxCell>
        <mxCell id="0MIKO7BPBziwEg9SYeyR-38" value="" style="group" parent="0MIKO7BPBziwEg9SYeyR-42" vertex="1" connectable="0">
          <mxGeometry x="37" y="52.5" width="190.5" height="198.5" as="geometry" />
        </mxCell>
        <mxCell id="0MIKO7BPBziwEg9SYeyR-15" value="" style="verticalLabelPosition=middle;verticalAlign=middle;html=1;shape=trapezoid;perimeter=trapezoidPerimeter;whiteSpace=wrap;size=0.23;arcSize=10;flipV=1;labelPosition=center;align=center;rotation=-90;strokeWidth=2;" parent="0MIKO7BPBziwEg9SYeyR-38" vertex="1">
          <mxGeometry x="69" y="44.5" width="166" height="77" as="geometry" />
        </mxCell>
        <mxCell id="0MIKO7BPBziwEg9SYeyR-18" value="&lt;b&gt;i1&lt;/b&gt;" style="text;html=1;align=center;verticalAlign=middle;resizable=0;points=[];autosize=1;strokeColor=none;fillColor=none;" parent="0MIKO7BPBziwEg9SYeyR-38" vertex="1">
          <mxGeometry x="115" y="105.5" width="29" height="27" as="geometry" />
        </mxCell>
        <mxCell id="0MIKO7BPBziwEg9SYeyR-19" value="&lt;b&gt;i0&lt;/b&gt;" style="text;html=1;align=center;verticalAlign=middle;resizable=0;points=[];autosize=1;strokeColor=none;fillColor=none;" parent="0MIKO7BPBziwEg9SYeyR-38" vertex="1">
          <mxGeometry x="115" y="24.5" width="29" height="27" as="geometry" />
        </mxCell>
        <mxCell id="0MIKO7BPBziwEg9SYeyR-21" value="" style="endArrow=none;html=1;rounded=0;strokeWidth=2;" parent="0MIKO7BPBziwEg9SYeyR-38" edge="1">
          <mxGeometry width="50" height="50" relative="1" as="geometry">
            <mxPoint y="38.5" as="sourcePoint" />
            <mxPoint x="114" y="38.81" as="targetPoint" />
          </mxGeometry>
        </mxCell>
        <mxCell id="0MIKO7BPBziwEg9SYeyR-22" value="" style="endArrow=none;html=1;rounded=0;strokeWidth=2;" parent="0MIKO7BPBziwEg9SYeyR-38" edge="1">
          <mxGeometry width="50" height="50" relative="1" as="geometry">
            <mxPoint y="118.5" as="sourcePoint" />
            <mxPoint x="114" y="118.80999999999995" as="targetPoint" />
          </mxGeometry>
        </mxCell>
        <mxCell id="0MIKO7BPBziwEg9SYeyR-36" value="" style="endArrow=none;html=1;rounded=0;strokeWidth=2;" parent="0MIKO7BPBziwEg9SYeyR-38" edge="1">
          <mxGeometry width="50" height="50" relative="1" as="geometry">
            <mxPoint x="159.39" y="143.5" as="sourcePoint" />
            <mxPoint x="159" y="198.5" as="targetPoint" />
          </mxGeometry>
        </mxCell>
        <mxCell id="0MIKO7BPBziwEg9SYeyR-37" value="&lt;b&gt;sel&lt;/b&gt;" style="text;html=1;align=center;verticalAlign=middle;resizable=0;points=[];autosize=1;strokeColor=none;fillColor=none;" parent="0MIKO7BPBziwEg9SYeyR-38" vertex="1">
          <mxGeometry x="139" y="117.5" width="40" height="30" as="geometry" />
        </mxCell>
        <mxCell id="0MIKO7BPBziwEg9SYeyR-39" value="&lt;b&gt;d&lt;/b&gt;" style="text;html=1;align=center;verticalAlign=middle;resizable=0;points=[];autosize=1;strokeColor=none;fillColor=none;" parent="0MIKO7BPBziwEg9SYeyR-42" vertex="1">
          <mxGeometry y="77" width="30" height="30" as="geometry" />
        </mxCell>
        <mxCell id="0MIKO7BPBziwEg9SYeyR-41" value="&lt;b&gt;scan_en&lt;/b&gt;" style="text;html=1;align=center;verticalAlign=middle;resizable=0;points=[];autosize=1;strokeColor=none;fillColor=none;" parent="0MIKO7BPBziwEg9SYeyR-42" vertex="1">
          <mxGeometry x="164" y="251" width="70" height="30" as="geometry" />
        </mxCell>
        <mxCell id="0MIKO7BPBziwEg9SYeyR-43" value="&lt;b&gt;clk&lt;/b&gt;" style="text;html=1;align=center;verticalAlign=middle;resizable=0;points=[];autosize=1;strokeColor=none;fillColor=none;" parent="0MIKO7BPBziwEg9SYeyR-44" vertex="1">
          <mxGeometry x="8" y="317" width="40" height="30" as="geometry" />
        </mxCell>
        <mxCell id="0MIKO7BPBziwEg9SYeyR-45" value="set_case_analysis" style="text;html=1;align=center;verticalAlign=middle;resizable=0;points=[];autosize=1;strokeColor=none;fillColor=none;fontSize=50;fontStyle=1" parent="1" vertex="1">
          <mxGeometry x="202.5" y="279" width="430" height="70" as="geometry" />
        </mxCell>
      </root>
    </mxGraphModel>
  </diagram>
</mxfile>
